<?xml version="1.0" standalone="no"?>
<!DOCTYPE svg PUBLIC "-//W3C//DTD SVG 20010904//EN"
 "http://www.w3.org/TR/2001/REC-SVG-20010904/DTD/svg10.dtd">
<svg version="1.0" xmlns="http://www.w3.org/2000/svg"
 width="100px" height="100px" viewBox="0 0 500.000000 500.000000"
 preserveAspectRatio="xMidYMid meet">

<g transform="translate(0.000000,500.000000) scale(0.100000,-0.100000)"
fill="black" stroke="none">
<path d="M2443 3950 c-85 -18 -119 -55 -82 -89 12 -11 34 -23 49 -26 15 -3 38
-17 50 -30 20 -22 22 -31 17 -91 -6 -84 -40 -137 -112 -173 -100 -50 -207 -34
-270 41 -30 36 -31 61 -5 122 23 50 15 86 -17 86 -81 0 -243 -163 -243 -245 0
-35 24 -42 81 -22 69 25 93 22 129 -15 70 -75 87 -164 49 -248 -36 -80 -92
-122 -178 -133 -65 -8 -89 5 -115 66 -39 88 -69 96 -103 29 -27 -56 -26 -233
3 -282 11 -20 29 -36 42 -38 18 -3 27 7 49 55 33 68 60 85 123 77 72 -9 108
-24 142 -57 73 -74 90 -188 39 -268 -30 -49 -75 -89 -98 -89 -8 0 -34 9 -59
21 -59 26 -88 22 -92 -13 -9 -78 154 -247 239 -248 9 0 22 7 29 15 11 13 10
25 -8 68 -12 29 -22 61 -22 71 0 25 82 104 126 122 18 8 55 14 81 14 123 -1
213 -96 213 -226 0 -52 -14 -70 -81 -102 -71 -35 -77 -62 -21 -91 85 -43 253
-35 310 14 35 30 23 53 -38 76 -56 21 -80 51 -80 101 0 138 88 237 213 238 60
0 104 -18 156 -65 34 -31 41 -44 41 -74 0 -20 -7 -45 -15 -55 -19 -26 -20 -85
0 -92 39 -15 151 55 209 131 38 49 57 104 45 127 -13 23 -36 23 -92 -2 -53
-23 -78 -18 -118 26 -64 70 -84 131 -68 206 22 102 101 166 212 171 65 2 91
-15 109 -74 35 -120 107 -68 116 85 11 185 -63 285 -116 157 -30 -72 -55 -85
-138 -72 -83 13 -128 45 -166 121 -44 85 -32 166 35 246 37 43 67 49 123 24
59 -27 88 -24 92 12 5 42 -26 97 -89 159 -58 57 -134 97 -164 86 -19 -8 -19
-63 0 -97 24 -41 18 -74 -17 -110 -76 -74 -169 -90 -264 -46 -64 30 -101 77
-116 150 -19 88 -8 107 86 148 64 28 60 71 -9 95 -51 17 -159 24 -212 13z
m199 -512 c22 -6 47 -22 55 -35 14 -21 14 -25 0 -46 -13 -19 -28 -25 -78 -31
-167 -17 -303 -150 -316 -309 -6 -68 -24 -97 -59 -97 -30 0 -49 30 -64 101
-16 74 -6 151 29 225 42 88 108 149 198 184 56 22 175 26 235 8z"/>
<path d="M1048 2024 c-34 -18 -42 -34 -79 -142 -33 -98 -36 -128 -13 -160 34
-49 104 -65 169 -38 30 13 38 13 62 1 39 -20 76 -19 106 5 14 11 39 20 56 20
18 0 40 -9 51 -20 28 -28 54 -25 93 10 32 28 37 29 68 18 19 -6 45 -19 58 -30
27 -20 62 -23 92 -7 15 7 24 7 35 -1 8 -8 27 -10 46 -6 18 4 40 7 48 6 8 0 61
-3 117 -6 110 -5 143 3 143 36 0 10 -9 22 -20 25 -11 3 -20 10 -20 14 0 5 23
70 51 145 28 76 48 140 45 143 -8 9 -106 -18 -121 -33 -16 -17 -9 -44 11 -44
19 0 18 -7 -10 -81 -18 -48 -29 -65 -45 -67 -13 -2 -29 -19 -41 -41 -18 -37
-46 -58 -59 -46 -3 4 16 71 43 151 39 113 47 147 38 156 -21 21 -45 -4 -71
-69 -23 -60 -23 -60 -52 -49 -49 18 -79 -7 -110 -92 -29 -79 -44 -102 -65
-102 -20 0 -17 23 11 102 20 55 23 73 14 85 -23 27 -43 9 -69 -62 -20 -55 -30
-71 -48 -73 -27 -4 -28 8 -2 58 11 22 20 48 20 59 0 25 -32 36 -60 21 -27 -14
-53 -75 -46 -104 3 -14 -3 -32 -19 -51 -30 -37 -32 -22 -9 70 19 74 14 98 -18
93 -18 -2 -26 -16 -41 -68 -18 -63 -37 -90 -64 -90 -11 0 -10 6 2 30 33 64 2
130 -62 130 -51 0 -80 -26 -108 -99 -22 -58 -32 -72 -61 -86 -51 -24 -104 -4
-104 41 0 25 47 161 63 182 5 6 18 12 28 12 15 0 19 -6 17 -32 -3 -36 21 -50
47 -28 16 13 20 77 7 96 -22 34 -80 42 -124 18z m250 -182 c3 -17 -2 -25 -17
-29 -24 -6 -35 -34 -26 -63 7 -23 -20 -39 -37 -22 -11 11 14 104 35 130 15 19
42 10 45 -16z m552 0 c-1 -31 -39 -102 -55 -102 -8 0 -15 6 -15 14 0 23 30
100 42 107 16 10 28 2 28 -19z"/>
<path d="M2252 2025 c-37 -16 -72 -84 -72 -141 0 -48 37 -84 85 -84 l36 0 -15
-29 c-24 -46 -68 -51 -79 -10 -6 23 -45 26 -53 4 -20 -51 43 -104 108 -91 52
10 82 50 123 168 34 97 36 111 25 138 -23 55 -91 74 -158 45z m83 -49 c17 -12
18 -18 7 -54 -20 -66 -62 -93 -91 -58 -23 28 23 126 59 126 4 0 15 -6 25 -14z"/>
<path d="M3512 1998 c-11 -24 -29 -74 -42 -113 -34 -103 -55 -141 -89 -154
-65 -27 -93 3 -70 76 17 55 49 74 46 26 -2 -24 2 -28 23 -28 19 0 26 7 34 33
8 28 6 36 -14 57 -52 55 -117 20 -150 -80 -26 -77 -52 -110 -72 -89 -4 3 5 38
18 77 13 39 24 81 24 93 0 20 -5 22 -62 22 -36 0 -72 -5 -84 -13 -12 -8 -32
-45 -48 -89 -27 -73 -49 -106 -63 -92 -4 3 1 29 11 56 21 58 15 85 -25 105
-16 9 -29 20 -29 25 0 11 -29 40 -40 40 -21 0 -42 -34 -36 -61 3 -16 -1 -44
-9 -63 -21 -49 -19 -66 6 -66 15 0 25 11 36 40 18 46 40 48 35 4 -10 -95 -8
-108 20 -123 22 -13 33 -14 59 -4 24 9 35 9 50 0 14 -9 26 -9 50 0 21 8 38 9
50 3 25 -14 59 -12 89 4 21 12 29 12 52 0 28 -14 152 -15 175 -1 7 4 18 26 24
47 10 32 17 40 35 40 21 0 23 -4 18 -29 -5 -21 -1 -34 15 -50 24 -24 55 -27
94 -7 23 13 31 13 55 0 51 -26 124 -14 171 29 13 12 35 46 48 76 18 40 27 51
35 43 8 -8 8 -22 0 -50 -16 -54 -15 -69 8 -92 27 -27 62 -25 101 7 33 28 64
87 54 103 -13 20 -43 9 -55 -19 -13 -34 -47 -67 -57 -58 -3 4 2 26 11 50 24
65 21 85 -19 108 -19 11 -37 29 -40 39 -9 28 -33 32 -56 9 -13 -13 -18 -27
-14 -40 9 -26 -23 -114 -51 -140 -30 -28 -86 -36 -107 -14 -27 26 -20 34 29
32 39 -2 49 2 70 26 32 38 31 80 -2 106 -60 48 -126 10 -159 -89 -17 -54 -40
-90 -56 -90 -14 0 -7 89 7 101 33 28 -1 99 -47 99 -18 0 -20 4 -14 23 15 44
11 91 -8 95 -12 3 -22 -9 -35 -40z m-375 -172 c-8 -52 -35 -106 -51 -106 -9 0
-16 8 -16 19 0 24 27 100 41 118 18 20 32 4 26 -31z m431 27 c-2 -10 -13 -19
-26 -21 -24 -4 -29 7 -10 26 18 18 40 15 36 -5z m217 -9 c0 -12 -8 -20 -22
-22 -25 -4 -31 16 -11 36 17 17 33 10 33 -14z"/>
<path d="M1690 2016 c-27 -33 18 -72 48 -42 13 13 14 20 6 34 -15 23 -38 26
-54 8z"/>
<path d="M2614 2015 c-10 -24 5 -35 47 -35 21 0 39 -2 39 -4 0 -3 -21 -63 -46
-135 -25 -72 -44 -138 -42 -148 2 -12 12 -18 28 -18 23 0 29 11 79 152 l53
152 47 3 c39 3 46 6 49 26 3 22 2 22 -123 22 -101 0 -127 -3 -131 -15z"/>
<path d="M777 1613 c-4 -3 -7 -82 -7 -174 0 -138 3 -168 15 -173 27 -10 45 22
45 80 l0 54 1675 0 1674 0 3 -62 c3 -60 4 -63 28 -63 l25 0 3 161 c3 169 -3
193 -42 178 -13 -5 -16 -21 -16 -80 l0 -74 -1675 0 -1675 0 0 61 c0 33 -5 69
-10 80 -11 19 -31 25 -43 12z"/>
</g>
</svg>
